# xmcd CD database file
#
# Track frame offsets:
#	150
#	17748
#	33846
#	51369
#	70092
#	84240
#	101238
#	118536
#	133734
#	154482
#	169980
#	188478
#
# Disc length: 2728 seconds
#
# Revision: 0
# Processed by: cddbd v1.5.2PL0 Copyright (c) Steve Scherf et al.
# Submitted via: CDex 1.70beta2
#
DISCID=9d0aa60c
DTITLE=SEAL - SOUL
DYEAR=2008
DGENRE=General Pop Vocal
TTITLE0=A change is gonna come
TTITLE1=I can't stand the rain
TTITLE2=It's a man's man's man's world
TTITLE3=Here I am (come and take me)
TTITLE4=I've been loving you too long
TTITLE5=It's allright
TTITLE6=If you don't know me by now
TTITLE7=Knock on wood
TTITLE8=I'm still in love with you
TTITLE9=Seal - Free
TTITLE10=Stand by me
TTITLE11=People get ready
EXTD=YEAR: 2008
EXTT0=
EXTT1=
EXTT2=
EXTT3=
EXTT4=
EXTT5=
EXTT6=
EXTT7=
EXTT8=
EXTT9=
EXTT10=
EXTT11=
PLAYORDER=
